<svg width="38" height="38" viewBox="0 0 38 38" fill="none" xmlns="http://www.w3.org/2000/svg">
<path d="M24.2408 29.925C22.7208 31.5083 20.9792 33.1392 19 34.8333C10.5608 27.6292 6.33334 21.4067 6.33334 16.15C6.33334 8.265 12.35 3.16666 19 3.16666C25.3333 3.16666 31.0967 7.79 31.6192 15.0417H37.2083L30.0833 22.1667L22.9583 15.0417H28.4525C27.9458 9.88 23.9558 6.33333 19 6.33333C13.6958 6.33333 9.50001 10.4025 9.50001 16.15C9.50001 19.855 12.5875 24.7633 19 30.6217C20.0133 29.6875 20.9475 28.785 21.8025 27.9142C21.5239 27.3644 21.3775 26.7572 21.375 26.1408C21.375 25.091 21.792 24.0842 22.5344 23.3419C23.2767 22.5995 24.2835 22.1825 25.3333 22.1825C26.3832 22.1825 27.39 22.5995 28.1323 23.3419C28.8746 24.0842 29.2917 25.091 29.2917 26.1408C29.2911 26.7531 29.1481 27.3569 28.8739 27.9043C28.5997 28.4517 28.2018 28.9279 27.7118 29.295C27.2218 29.6621 26.6531 29.9102 26.0507 30.0195C25.4482 30.1288 24.8286 30.0965 24.2408 29.925Z" fill="#FA793C"/>
</svg>
